<svg width="32" height="32" viewBox="0 0 32 32" fill="none" xmlns="http://www.w3.org/2000/svg">
<path d="M6.72842 13.4467V15.0699H15.1215V7.08367C14.6202 6.61 13.9457 6.31802 13.2058 6.31802H7.30053C5.7635 6.31802 4.50591 7.57562 4.50591 9.11265V10.6558C5.77715 10.9482 6.72842 12.088 6.72842 13.4467Z" fill="#F4CD3C"/>
<path d="M15.1214 16.8277H6.72842V18.5774H15.1246L15.1239 18.5684C15.1227 18.5512 15.1214 18.534 15.1214 18.5164V16.8277Z" fill="#F4CD3C"/>
<path d="M27.4948 10.6557C26.2232 10.9477 25.2716 12.0878 25.2716 13.4467V15.0699H16.8793V7.08367C17.3805 6.60994 18.0551 6.31802 18.795 6.31802H24.7002C26.2372 6.31802 27.4948 7.57562 27.4948 9.11265V10.6557Z" fill="#F4CD3C"/>
<path d="M25.2716 16.8278H16.8793V18.5165C16.8793 18.5335 16.8781 18.5503 16.8769 18.567L16.8762 18.5774H25.2717L25.2716 16.8278Z" fill="#F4CD3C"/>
<path d="M27.0295 13.2485C27.0295 12.7469 27.436 12.3403 27.9377 12.3403H29.8937C30.5047 12.3403 31 12.8356 31 13.4466V22.8101C31 23.3117 30.5934 23.7183 30.0918 23.7183H27.1328V24.8031C27.1328 25.3017 26.7176 25.7034 26.2141 25.6812C25.7398 25.6602 25.375 25.2503 25.375 24.7755V23.7183H6.625V24.8031C6.625 25.3017 6.2098 25.7033 5.70631 25.6812C5.23199 25.6602 4.86719 25.2503 4.86719 24.7755V23.7183H1.9082C1.40664 23.7183 1 23.3117 1 22.8101V13.4466C1 12.8357 1.49529 12.3404 2.10625 12.3404H4.0624C4.56396 12.3404 4.97061 12.7469 4.97061 13.2486V19.4269C4.97061 19.9285 5.37719 20.3352 5.87881 20.3352H26.1213C26.6228 20.3352 27.0295 19.9285 27.0295 19.4269V13.2485Z" fill="#F4CD3C"/>
</svg>
