<svg width="20" height="21" viewBox="0 0 20 21" fill="none" xmlns="http://www.w3.org/2000/svg">
<g clip-path="url(#clip0)">
<path d="M20 0.36499H0V20.4708H20V0.36499Z" fill="#50ABF1"/>
<path d="M2.64964 15.2689C3.98069 16.1175 5.5596 16.6086 7.25213 16.6086C12.0071 16.6086 15.8616 12.7333 15.8616 7.95363C15.8616 7.83429 15.8591 7.71584 15.8545 7.59773C16.0265 7.46167 17.0902 6.6046 17.3509 6.05361C17.3509 6.05361 16.4871 6.4145 15.6417 6.49951C15.6401 6.49951 15.638 6.49991 15.6363 6.49991C15.6363 6.49991 15.638 6.49907 15.6409 6.497C15.7188 6.44467 16.8079 5.69939 16.9553 4.81139C16.9553 4.81139 16.3443 5.13923 15.4889 5.42604C15.3473 5.47333 15.199 5.51983 15.0462 5.56294C14.4947 4.97132 13.7109 4.60205 12.8409 4.60205C11.1721 4.60205 9.81979 5.9611 9.81979 7.63748C9.81979 7.87404 9.84687 8.10429 9.89808 8.32537C9.66487 8.31575 6.11352 8.11559 3.69754 5.17435C3.69754 5.17435 2.25361 7.15598 4.558 9.19369C4.558 9.19369 3.8575 9.16563 3.25315 8.80263C3.25315 8.80263 3.03118 11.2033 5.64083 11.8172C5.64083 11.8172 5.12733 12.0127 4.30812 11.8733C4.30812 11.8733 4.76624 13.813 7.0848 13.9943C7.0848 13.9943 5.25139 15.6593 2.6488 15.2687L2.64964 15.2689Z" fill="white"/>
</g>
<defs>
<clipPath id="clip0">
<rect width="20" height="20.1058" fill="white" transform="translate(0 0.36499)"/>
</clipPath>
</defs>
</svg>
