<svg width="16" height="15" viewBox="0 0 16 15" fill="none" xmlns="http://www.w3.org/2000/svg">
<g clip-path="url(#clip0)">
<path d="M7.50273 7.19173L12.1848 11.8736C12.4225 12.1115 12.7132 12.2302 13.0568 12.2302C13.4004 12.2302 13.6909 12.1115 13.9286 11.8736L14.6512 11.1512C14.8888 10.9137 15.0076 10.623 15.0076 10.2795C15.0076 9.93599 14.8888 9.64542 14.6512 9.40753L8.37952 3.12629C8.14186 2.8886 7.85123 2.76976 7.50755 2.76976C7.16388 2.76976 6.87348 2.88857 6.63572 3.12629L0.364035 9.4075C0.12638 9.64539 0.00756931 9.93592 0.00756931 10.2795C0.00756931 10.623 0.12638 10.9137 0.364035 11.1512L1.08655 11.8736C1.32407 12.1115 1.61308 12.2302 1.95365 12.2302C2.29396 12.2302 2.58621 12.1115 2.83024 11.8736L7.50273 7.19173Z" fill="#EA4F3D"/>
</g>
<defs>
<clipPath id="clip0">
<rect width="15" height="15" fill="white" transform="translate(15.0076) rotate(90)"/>
</clipPath>
</defs>
</svg>
