<svg width="20" height="20" viewBox="0 0 20 20" fill="none" xmlns="http://www.w3.org/2000/svg">
<g clip-path="url(#clip0)">
<path d="M6.37996 16.2887C5.22678 16.2887 4.29199 17.2235 4.29199 18.3766C4.29199 19.5298 5.22682 20.4646 6.37996 20.4646C7.53313 20.4646 8.46792 19.5298 8.46792 18.3766C8.46796 17.2235 7.53313 16.2887 6.37996 16.2887ZM6.37996 19.5366C5.73931 19.5366 5.21999 19.0173 5.21999 18.3767C5.21999 17.736 5.73931 17.2167 6.37996 17.2167C7.0206 17.2167 7.53993 17.736 7.53993 18.3767C7.53997 19.0173 7.0206 19.5366 6.37996 19.5366Z" fill="black"/>
<path d="M15.1959 16.2887C14.0427 16.2887 13.1079 17.2235 13.1079 18.3766C13.1079 19.5298 14.0427 20.4646 15.1959 20.4646C16.349 20.4646 17.2838 19.5298 17.2838 18.3766C17.2838 17.2235 16.349 16.2887 15.1959 16.2887ZM15.1959 19.5366C14.5552 19.5366 14.0359 19.0173 14.0359 18.3767C14.0359 17.736 14.5552 17.2167 15.1959 17.2167C15.8365 17.2167 16.3558 17.736 16.3558 18.3767C16.3559 19.0173 15.8365 19.5366 15.1959 19.5366Z" fill="black"/>
<path d="M19.9054 4.10881C19.8088 4.00326 19.6766 3.93718 19.5342 3.92319L4.43117 3.7144L4.01358 2.43839C3.71939 1.5854 2.92062 1.00955 2.01838 1H0.463997C0.207731 1 0 1.20773 0 1.464C0 1.72026 0.207731 1.92799 0.463997 1.92799H2.01838C2.52287 1.93914 2.96711 2.26308 3.13199 2.74L6.07836 11.6255L5.84639 12.1591C5.58763 12.8263 5.66534 13.5773 6.05518 14.1775C6.44129 14.7669 7.09086 15.1307 7.79518 15.1519H16.8199C17.0762 15.1519 17.2839 14.9441 17.2839 14.6879C17.2839 14.4316 17.0762 14.2239 16.8199 14.2239H7.79514C7.3974 14.2139 7.03127 14.0047 6.82074 13.6671C6.61257 13.3336 6.5698 12.9227 6.70475 12.5535L6.89037 12.1359L16.6575 11.1151C17.7303 10.9969 18.6129 10.2166 18.8615 9.16628L19.9751 4.50313C20.0253 4.36885 19.9986 4.21783 19.9054 4.10881ZM17.9567 8.95753C17.806 9.63365 17.232 10.1324 16.5415 10.1871L6.89037 11.1847L4.73278 4.64239L18.9542 4.85119L17.9567 8.95753Z" fill="black"/>
</g>
<defs>
<clipPath id="clip0">
<rect width="20" height="20" fill="white"/>
</clipPath>
</defs>
</svg>
