<svg width="12" height="12" viewBox="0 0 12 12" fill="none" xmlns="http://www.w3.org/2000/svg">
<g clip-path="url(#clip0)">
<path d="M10.6747 11.7973L7.30788 8.49273C6.54509 9.19275 5.5348 9.62804 4.42047 9.63844C2.02771 9.66076 0.0628427 7.73225 0.0405072 5.33947C0.0181716 2.9467 1.9467 0.981828 4.33947 0.959493C6.73225 0.937157 8.69712 2.86569 8.71946 5.25846C8.72986 6.3728 8.31351 7.39101 7.62784 8.16676L10.9946 11.4713C11.0397 11.5155 11.0625 11.5737 11.0631 11.6322C11.0636 11.6906 11.0418 11.7492 10.9977 11.7943C10.9093 11.8843 10.7647 11.8856 10.6747 11.7973ZM8.26266 5.26272C8.24267 3.12199 6.48469 1.39631 4.34374 1.41629C2.20279 1.43628 0.477303 3.19448 0.497286 5.33521C0.517269 7.47595 2.27525 9.20163 4.41622 9.18164C6.55719 9.16166 8.28264 7.40346 8.26266 5.26272Z" fill="#111"/>
</g>
<defs>
<clipPath id="clip0">
<rect width="10.9633" height="10.9633" fill="white" transform="matrix(0.00933417 0.999956 0.999956 -0.00933417 0 1)"/>
</clipPath>
</defs>
</svg>
