<svg width="20" height="20" viewBox="0 0 20 20" fill="none" xmlns="http://www.w3.org/2000/svg">
<path d="M10.4112 9.99354L4.16863 16.2363C3.85144 16.5532 3.69321 16.9408 3.69321 17.399C3.69321 17.8571 3.85148 18.2445 4.16863 18.5613L5.13184 19.5248C5.44854 19.8416 5.83614 20 6.29415 20C6.75216 20 7.13958 19.8416 7.45677 19.5248L15.8318 11.1626C16.1487 10.8457 16.3071 10.4582 16.3071 9.99998C16.3071 9.54174 16.1487 9.15455 15.8318 8.83754L7.45681 0.475288C7.13962 0.158415 6.75225 0 6.29419 0C5.83614 0 5.44858 0.158415 5.13189 0.475288L4.16867 1.43864C3.85148 1.75533 3.69325 2.14068 3.69325 2.59478C3.69325 3.04852 3.85153 3.43819 4.16867 3.76356L10.4112 9.99354Z" fill="#EA4F3D"/>
</svg>
