<svg width="26" height="25" viewBox="0 0 26 25" fill="none" xmlns="http://www.w3.org/2000/svg">
<g clip-path="url(#clip0)">
<path d="M25.9077 12.2041C25.7108 11.9177 20.9795 5.20819 13.5002 5.20819C7.08237 5.20819 1.36353 11.8791 1.1229 12.1635C0.95937 12.3573 0.95937 12.6417 1.1229 12.8364C1.36353 13.1208 7.08237 19.7918 13.5002 19.7918C19.918 19.7918 25.6368 13.1208 25.8774 12.8364C26.0285 12.6573 26.042 12.3979 25.9077 12.2041ZM13.5002 18.7501C8.35534 18.7501 3.46356 13.8438 2.22086 12.5C3.46151 11.1552 8.34806 6.24991 13.5002 6.24991C19.5201 6.24991 23.7691 11.149 24.8066 12.4719C23.6087 13.7729 18.6888 18.7501 13.5002 18.7501Z" fill="white"/>
<path d="M13.5 8.33325C11.202 8.33325 9.33324 10.202 9.33324 12.5C9.33324 14.7979 11.202 16.6667 13.5 16.6667C15.7979 16.6667 17.6667 14.7979 17.6667 12.5C17.6667 10.202 15.7979 8.33325 13.5 8.33325ZM13.5 15.6251C11.777 15.6251 10.3749 14.223 10.3749 12.5C10.3749 10.7771 11.777 9.37497 13.5 9.37497C15.2229 9.37497 16.625 10.7771 16.625 12.5C16.625 14.223 15.2229 15.6251 13.5 15.6251Z" fill="white"/>
</g>
<defs>
<clipPath id="clip0">
<rect width="24.9787" height="25" fill="white" transform="translate(0.894958)"/>
</clipPath>
</defs>
</svg>
