<svg width="72" height="50" viewBox="0 0 72 50" fill="none" xmlns="http://www.w3.org/2000/svg">
<path d="M8.65 15.34C8.78333 15.5933 8.91 15.8567 9.03 16.13C9.15667 16.4033 9.27667 16.6833 9.39 16.97C9.50333 16.6767 9.62333 16.3933 9.75 16.12C9.87667 15.84 10.0067 15.57 10.14 15.31L13.88 7.95C13.9467 7.82333 14.0133 7.72667 14.08 7.66C14.1533 7.58667 14.2333 7.53333 14.32 7.5C14.4067 7.46667 14.5033 7.44667 14.61 7.44C14.7233 7.43333 14.8533 7.43 15 7.43H17.58V22H14.6V13.62C14.6 13.2133 14.62 12.7733 14.66 12.3L10.8 19.79C10.68 20.0233 10.5167 20.2 10.31 20.32C10.11 20.44 9.88 20.5 9.62 20.5H9.16C8.9 20.5 8.66667 20.44 8.46 20.32C8.26 20.2 8.1 20.0233 7.98 19.79L4.1 12.29C4.12667 12.5233 4.14667 12.7567 4.16 12.99C4.17333 13.2167 4.18 13.4267 4.18 13.62V22H1.2V7.43H3.78C3.92667 7.43 4.05333 7.43333 4.16 7.44C4.27333 7.44667 4.37333 7.46667 4.46 7.5C4.54667 7.53333 4.62333 7.58667 4.69 7.66C4.76333 7.72667 4.83333 7.82333 4.9 7.95L8.65 15.34ZM28.2491 16.46V22H24.8691V16.46L19.5891 7.43H22.5691C22.8624 7.43 23.0957 7.5 23.2691 7.64C23.4424 7.77333 23.5824 7.94667 23.6891 8.16L25.7491 12.4C25.9157 12.74 26.0691 13.0533 26.2091 13.34C26.3491 13.6267 26.4724 13.91 26.5791 14.19C26.6791 13.9033 26.7991 13.6167 26.9391 13.33C27.0791 13.0433 27.2291 12.7333 27.3891 12.4L29.4291 8.16C29.4691 8.07333 29.5224 7.98667 29.5891 7.9C29.6624 7.81333 29.7424 7.73667 29.8291 7.67C29.9224 7.59667 30.0257 7.54 30.1391 7.5C30.2591 7.45333 30.3891 7.43 30.5291 7.43H33.5291L28.2491 16.46ZM13.92 46H10.52V39.84H4.6V46H1.2V31.43H4.6V37.52H10.52V31.43H13.92V46ZM31.6972 38.71C31.6972 39.7633 31.5139 40.7433 31.1472 41.65C30.7872 42.5567 30.2772 43.3467 29.6172 44.02C28.9572 44.6867 28.1605 45.21 27.2272 45.59C26.3005 45.97 25.2705 46.16 24.1372 46.16C23.0039 46.16 21.9705 45.97 21.0372 45.59C20.1039 45.21 19.3039 44.6867 18.6372 44.02C17.9772 43.3467 17.4639 42.5567 17.0972 41.65C16.7372 40.7433 16.5572 39.7633 16.5572 38.71C16.5572 37.6567 16.7372 36.6767 17.0972 35.77C17.4639 34.8633 17.9772 34.0767 18.6372 33.41C19.3039 32.7433 20.1039 32.22 21.0372 31.84C21.9705 31.46 23.0039 31.27 24.1372 31.27C25.2705 31.27 26.3005 31.4633 27.2272 31.85C28.1605 32.23 28.9572 32.7533 29.6172 33.42C30.2772 34.0867 30.7872 34.8733 31.1472 35.78C31.5139 36.6867 31.6972 37.6633 31.6972 38.71ZM28.2372 38.71C28.2372 37.99 28.1439 37.3433 27.9572 36.77C27.7705 36.19 27.5005 35.7 27.1472 35.3C26.8005 34.9 26.3739 34.5933 25.8672 34.38C25.3605 34.1667 24.7839 34.06 24.1372 34.06C23.4839 34.06 22.9005 34.1667 22.3872 34.38C21.8805 34.5933 21.4505 34.9 21.0972 35.3C20.7505 35.7 20.4839 36.19 20.2972 36.77C20.1105 37.3433 20.0172 37.99 20.0172 38.71C20.0172 39.4367 20.1105 40.09 20.2972 40.67C20.4839 41.2433 20.7505 41.73 21.0972 42.13C21.4505 42.53 21.8805 42.8367 22.3872 43.05C22.9005 43.2567 23.4839 43.36 24.1372 43.36C24.7839 43.36 25.3605 43.2567 25.8672 43.05C26.3739 42.8367 26.8005 42.53 27.1472 42.13C27.5005 41.73 27.7705 41.2433 27.9572 40.67C28.1439 40.09 28.2372 39.4367 28.2372 38.71ZM40.3733 43.33C40.8266 43.33 41.2299 43.2567 41.5833 43.11C41.9433 42.9567 42.2466 42.74 42.4933 42.46C42.7399 42.18 42.9266 41.84 43.0533 41.44C43.1866 41.0333 43.2533 40.5733 43.2533 40.06V31.43H46.6333V40.06C46.6333 40.9533 46.4866 41.7733 46.1933 42.52C45.9066 43.2667 45.4933 43.91 44.9533 44.45C44.4133 44.99 43.7566 45.41 42.9833 45.71C42.2099 46.01 41.3399 46.16 40.3733 46.16C39.3999 46.16 38.5266 46.01 37.7533 45.71C36.9799 45.41 36.3233 44.99 35.7833 44.45C35.2433 43.91 34.8299 43.2667 34.5433 42.52C34.2566 41.7733 34.1133 40.9533 34.1133 40.06V31.43H37.4933V40.05C37.4933 40.5633 37.5566 41.0233 37.6833 41.43C37.8166 41.83 38.0066 42.1733 38.2533 42.46C38.4999 42.74 38.7999 42.9567 39.1533 43.11C39.5133 43.2567 39.9199 43.33 40.3733 43.33ZM57.945 34.39C57.845 34.55 57.7383 34.67 57.625 34.75C57.5183 34.83 57.3783 34.87 57.205 34.87C57.0517 34.87 56.885 34.8233 56.705 34.73C56.5317 34.63 56.3317 34.52 56.105 34.4C55.885 34.28 55.6317 34.1733 55.345 34.08C55.0583 33.98 54.7317 33.93 54.365 33.93C53.7317 33.93 53.2583 34.0667 52.945 34.34C52.6383 34.6067 52.485 34.97 52.485 35.43C52.485 35.7233 52.5783 35.9667 52.765 36.16C52.9517 36.3533 53.195 36.52 53.495 36.66C53.8017 36.8 54.1483 36.93 54.535 37.05C54.9283 37.1633 55.3283 37.2933 55.735 37.44C56.1417 37.58 56.5383 37.7467 56.925 37.94C57.3183 38.1333 57.665 38.38 57.965 38.68C58.2717 38.98 58.5183 39.3467 58.705 39.78C58.8917 40.2067 58.985 40.7233 58.985 41.33C58.985 42.0033 58.8683 42.6333 58.635 43.22C58.4017 43.8067 58.0617 44.32 57.615 44.76C57.175 45.1933 56.6283 45.5367 55.975 45.79C55.3283 46.0367 54.5917 46.16 53.765 46.16C53.3117 46.16 52.8483 46.1133 52.375 46.02C51.9083 45.9267 51.455 45.7967 51.015 45.63C50.575 45.4567 50.1617 45.2533 49.775 45.02C49.3883 44.7867 49.0517 44.5267 48.765 44.24L49.765 42.66C49.8383 42.54 49.9417 42.4433 50.075 42.37C50.2083 42.2967 50.3517 42.26 50.505 42.26C50.705 42.26 50.905 42.3233 51.105 42.45C51.3117 42.5767 51.5417 42.7167 51.795 42.87C52.055 43.0233 52.3517 43.1633 52.685 43.29C53.0183 43.4167 53.4117 43.48 53.865 43.48C54.4783 43.48 54.955 43.3467 55.295 43.08C55.635 42.8067 55.805 42.3767 55.805 41.79C55.805 41.45 55.7117 41.1733 55.525 40.96C55.3383 40.7467 55.0917 40.57 54.785 40.43C54.485 40.29 54.1417 40.1667 53.755 40.06C53.3683 39.9533 52.9717 39.8367 52.565 39.71C52.1583 39.5767 51.7617 39.4167 51.375 39.23C50.9883 39.0367 50.6417 38.7867 50.335 38.48C50.035 38.1667 49.7917 37.78 49.605 37.32C49.4183 36.8533 49.325 36.28 49.325 35.6C49.325 35.0533 49.435 34.52 49.655 34C49.875 33.48 50.1983 33.0167 50.625 32.61C51.0517 32.2033 51.575 31.88 52.195 31.64C52.815 31.3933 53.525 31.27 54.325 31.27C54.7717 31.27 55.205 31.3067 55.625 31.38C56.0517 31.4467 56.455 31.55 56.835 31.69C57.215 31.8233 57.5683 31.9867 57.895 32.18C58.2283 32.3667 58.525 32.58 58.785 32.82L57.945 34.39ZM71.0448 31.43V34.03H65.0648V37.43H69.6448V39.93H65.0648V43.4H71.0448V46H61.6648V31.43H71.0448Z" fill="#EA4F3D"/>
<g clip-path="url(#clip0)">
<path d="M64.9377 11.3403C64.436 11.3403 64.0295 11.7469 64.0295 12.2485V18.4269C64.0295 18.9285 63.6228 19.3352 63.1212 19.3352H42.8788C42.3772 19.3352 41.9706 18.9285 41.9706 18.4269V12.2485C41.9706 11.7469 41.564 11.3403 41.0624 11.3403H39.1062C38.4953 11.3403 38 11.8356 38 12.4466V21.8101C38 22.3117 38.4066 22.7183 38.9082 22.7183H41.8672V23.7755C41.8672 24.2503 42.232 24.6602 42.7063 24.6811C43.2098 24.7033 43.625 24.3016 43.625 23.8031V22.7183H62.375V23.7755C62.375 24.2503 62.7398 24.6602 63.2141 24.6811C63.7176 24.7034 64.1328 24.3017 64.1328 23.8031V22.7183H67.0918C67.5934 22.7183 68 22.3117 68 21.8101V12.4465C68 11.8356 67.5047 11.3403 66.8937 11.3403H64.9377Z" fill="#F4CD3C"/>
<path d="M43.7284 12.4467V14.0699H52.1215V6.08367C51.6202 5.61 50.9457 5.31802 50.2058 5.31802H44.3005C42.7635 5.31802 41.5059 6.57562 41.5059 8.11265V9.65584C42.7772 9.94816 43.7284 11.088 43.7284 12.4467V12.4467Z" fill="#F4CD3C"/>
<path d="M52.1215 15.8277H43.7284V16.2626V17.5774H52.1246C52.1232 17.5571 52.1215 17.537 52.1215 17.5164V16.2626V15.8277Z" fill="#F4CD3C"/>
<path d="M62.2716 12.4467C62.2716 11.0878 63.2232 9.94769 64.4948 9.65572V8.11265C64.4948 6.57562 63.2372 5.31802 61.7002 5.31802H55.795C55.0551 5.31802 54.3805 5.60994 53.8793 6.08367V14.0699H62.2716V12.4467Z" fill="#F4CD3C"/>
<path d="M62.2716 16.2626V15.8278H53.8793V16.2626V17.5165C53.8793 17.5371 53.8776 17.5572 53.8762 17.5774H62.2717V16.2626H62.2716Z" fill="#F4CD3C"/>
</g>
<defs>
<clipPath id="clip0">
<rect width="30" height="30" fill="white" transform="translate(38)"/>
</clipPath>
</defs>
</svg>
