<svg width="65" height="44" viewBox="0 0 65 44" fill="none" xmlns="http://www.w3.org/2000/svg">
<path d="M7.785 12.006C7.905 12.234 8.019 12.471 8.127 12.717C8.241 12.963 8.349 13.215 8.451 13.473C8.553 13.209 8.661 12.954 8.775 12.708C8.889 12.456 9.006 12.213 9.126 11.979L12.492 5.355C12.552 5.241 12.612 5.154 12.672 5.094C12.738 5.028 12.81 4.98 12.888 4.95C12.966 4.92 13.053 4.902 13.149 4.896C13.251 4.89 13.368 4.887 13.5 4.887H15.822V18H13.14V10.458C13.14 10.092 13.158 9.696 13.194 9.27L9.72 16.011C9.612 16.221 9.465 16.38 9.279 16.488C9.099 16.596 8.892 16.65 8.658 16.65H8.244C8.01 16.65 7.8 16.596 7.614 16.488C7.434 16.38 7.29 16.221 7.182 16.011L3.69 9.261C3.714 9.471 3.732 9.681 3.744 9.891C3.756 10.095 3.762 10.284 3.762 10.458V18H1.08V4.887H3.402C3.534 4.887 3.648 4.89 3.744 4.896C3.846 4.902 3.936 4.92 4.014 4.95C4.092 4.98 4.161 5.028 4.221 5.094C4.287 5.154 4.35 5.241 4.41 5.355L7.785 12.006ZM25.4242 13.014V18H22.3822V13.014L17.6302 4.887H20.3122C20.5762 4.887 20.7862 4.95 20.9422 5.076C21.0982 5.196 21.2242 5.352 21.3202 5.544L23.1742 9.36C23.3242 9.666 23.4622 9.948 23.5882 10.206C23.7142 10.464 23.8252 10.719 23.9212 10.971C24.0112 10.713 24.1192 10.455 24.2452 10.197C24.3712 9.939 24.5062 9.66 24.6502 9.36L26.4862 5.544C26.5222 5.466 26.5702 5.388 26.6302 5.31C26.6962 5.232 26.7682 5.163 26.8462 5.103C26.9302 5.037 27.0232 4.986 27.1252 4.95C27.2332 4.908 27.3502 4.887 27.4762 4.887H30.1762L25.4242 13.014ZM12.528 40H9.468V34.456H4.14V40H1.08V26.887H4.14V32.368H9.468V26.887H12.528V40ZM28.5275 33.439C28.5275 34.387 28.3625 35.269 28.0325 36.085C27.7085 36.901 27.2495 37.612 26.6555 38.218C26.0615 38.818 25.3445 39.289 24.5045 39.631C23.6705 39.973 22.7435 40.144 21.7235 40.144C20.7035 40.144 19.7735 39.973 18.9335 39.631C18.0935 39.289 17.3735 38.818 16.7735 38.218C16.1795 37.612 15.7175 36.901 15.3875 36.085C15.0635 35.269 14.9015 34.387 14.9015 33.439C14.9015 32.491 15.0635 31.609 15.3875 30.793C15.7175 29.977 16.1795 29.269 16.7735 28.669C17.3735 28.069 18.0935 27.598 18.9335 27.256C19.7735 26.914 20.7035 26.743 21.7235 26.743C22.7435 26.743 23.6705 26.917 24.5045 27.265C25.3445 27.607 26.0615 28.078 26.6555 28.678C27.2495 29.278 27.7085 29.986 28.0325 30.802C28.3625 31.618 28.5275 32.497 28.5275 33.439ZM25.4135 33.439C25.4135 32.791 25.3295 32.209 25.1615 31.693C24.9935 31.171 24.7505 30.73 24.4325 30.37C24.1205 30.01 23.7365 29.734 23.2805 29.542C22.8245 29.35 22.3055 29.254 21.7235 29.254C21.1355 29.254 20.6105 29.35 20.1485 29.542C19.6925 29.734 19.3055 30.01 18.9875 30.37C18.6755 30.73 18.4355 31.171 18.2675 31.693C18.0995 32.209 18.0155 32.791 18.0155 33.439C18.0155 34.093 18.0995 34.681 18.2675 35.203C18.4355 35.719 18.6755 36.157 18.9875 36.517C19.3055 36.877 19.6925 37.153 20.1485 37.345C20.6105 37.531 21.1355 37.624 21.7235 37.624C22.3055 37.624 22.8245 37.531 23.2805 37.345C23.7365 37.153 24.1205 36.877 24.4325 36.517C24.7505 36.157 24.9935 35.719 25.1615 35.203C25.3295 34.681 25.4135 34.093 25.4135 33.439ZM36.336 37.597C36.744 37.597 37.107 37.531 37.425 37.399C37.749 37.261 38.022 37.066 38.244 36.814C38.466 36.562 38.634 36.256 38.748 35.896C38.868 35.53 38.928 35.116 38.928 34.654V26.887H41.97V34.654C41.97 35.458 41.838 36.196 41.574 36.868C41.316 37.54 40.944 38.119 40.458 38.605C39.972 39.091 39.381 39.469 38.685 39.739C37.989 40.009 37.206 40.144 36.336 40.144C35.46 40.144 34.674 40.009 33.978 39.739C33.282 39.469 32.691 39.091 32.205 38.605C31.719 38.119 31.347 37.54 31.089 36.868C30.831 36.196 30.702 35.458 30.702 34.654V26.887H33.744V34.645C33.744 35.107 33.801 35.521 33.915 35.887C34.035 36.247 34.206 36.556 34.428 36.814C34.65 37.066 34.92 37.261 35.238 37.399C35.562 37.531 35.928 37.597 36.336 37.597ZM52.1505 29.551C52.0605 29.695 51.9645 29.803 51.8625 29.875C51.7665 29.947 51.6405 29.983 51.4845 29.983C51.3465 29.983 51.1965 29.941 51.0345 29.857C50.8785 29.767 50.6985 29.668 50.4945 29.56C50.2965 29.452 50.0685 29.356 49.8105 29.272C49.5525 29.182 49.2585 29.137 48.9285 29.137C48.3585 29.137 47.9325 29.26 47.6505 29.506C47.3745 29.746 47.2365 30.073 47.2365 30.487C47.2365 30.751 47.3205 30.97 47.4885 31.144C47.6565 31.318 47.8755 31.468 48.1455 31.594C48.4215 31.72 48.7335 31.837 49.0815 31.945C49.4355 32.047 49.7955 32.164 50.1615 32.296C50.5275 32.422 50.8845 32.572 51.2325 32.746C51.5865 32.92 51.8985 33.142 52.1685 33.412C52.4445 33.682 52.6665 34.012 52.8345 34.402C53.0025 34.786 53.0865 35.251 53.0865 35.797C53.0865 36.403 52.9815 36.97 52.7715 37.498C52.5615 38.026 52.2555 38.488 51.8535 38.884C51.4575 39.274 50.9655 39.583 50.3775 39.811C49.7955 40.033 49.1325 40.144 48.3885 40.144C47.9805 40.144 47.5635 40.102 47.1375 40.018C46.7175 39.934 46.3095 39.817 45.9135 39.667C45.5175 39.511 45.1455 39.328 44.7975 39.118C44.4495 38.908 44.1465 38.674 43.8885 38.416L44.7885 36.994C44.8545 36.886 44.9475 36.799 45.0675 36.733C45.1875 36.667 45.3165 36.634 45.4545 36.634C45.6345 36.634 45.8145 36.691 45.9945 36.805C46.1805 36.919 46.3875 37.045 46.6155 37.183C46.8495 37.321 47.1165 37.447 47.4165 37.561C47.7165 37.675 48.0705 37.732 48.4785 37.732C49.0305 37.732 49.4595 37.612 49.7655 37.372C50.0715 37.126 50.2245 36.739 50.2245 36.211C50.2245 35.905 50.1405 35.656 49.9725 35.464C49.8045 35.272 49.5825 35.113 49.3065 34.987C49.0365 34.861 48.7275 34.75 48.3795 34.654C48.0315 34.558 47.6745 34.453 47.3085 34.339C46.9425 34.219 46.5855 34.075 46.2375 33.907C45.8895 33.733 45.5775 33.508 45.3015 33.232C45.0315 32.95 44.8125 32.602 44.6445 32.188C44.4765 31.768 44.3925 31.252 44.3925 30.64C44.3925 30.148 44.4915 29.668 44.6895 29.2C44.8875 28.732 45.1785 28.315 45.5625 27.949C45.9465 27.583 46.4175 27.292 46.9755 27.076C47.5335 26.854 48.1725 26.743 48.8925 26.743C49.2945 26.743 49.6845 26.776 50.0625 26.842C50.4465 26.902 50.8095 26.995 51.1515 27.121C51.4935 27.241 51.8115 27.388 52.1055 27.562C52.4055 27.73 52.6725 27.922 52.9065 28.138L52.1505 29.551ZM63.9404 26.887V29.227H58.5584V32.287H62.6804V34.537H58.5584V37.66H63.9404V40H55.4984V26.887H63.9404Z" fill="#EA4F3D"/>
<g clip-path="url(#clip0)">
<path d="M58.448 9.45024C58.03 9.45024 57.6912 9.78911 57.6912 10.2071V15.3558C57.6912 15.7738 57.3523 16.1126 56.9344 16.1126H40.0657C39.6477 16.1126 39.3088 15.7738 39.3088 15.3558V10.2071C39.3088 9.78911 38.97 9.45029 38.552 9.45029H36.9219C36.4127 9.45029 36 9.86303 36 10.3722V18.175C36 18.5931 36.3389 18.9319 36.7568 18.9319H39.2227V19.8129C39.2227 20.2086 39.5267 20.5501 39.9219 20.5676C40.3415 20.5861 40.6875 20.2514 40.6875 19.8359V18.9319H56.3125V19.8129C56.3125 20.2086 56.6165 20.5501 57.0118 20.5676C57.4313 20.5861 57.7773 20.2514 57.7773 19.8359V18.9319H60.2432C60.6612 18.9319 61 18.5931 61 18.1751V10.3721C61 9.86299 60.5873 9.45024 60.0781 9.45024H58.448Z" fill="#F4CD3C"/>
<path d="M40.7737 10.3722V11.7249H47.7679V5.06972C47.3502 4.675 46.788 4.43169 46.1715 4.43169H41.2504C39.9696 4.43169 38.9216 5.47968 38.9216 6.76054V8.04653C39.981 8.29013 40.7737 9.24004 40.7737 10.3722Z" fill="#F4CD3C"/>
<path d="M47.7679 13.1897H40.7737V13.5521V14.6478H47.7705C47.7693 14.631 47.7679 14.6142 47.7679 14.597V13.5521V13.1897Z" fill="#F4CD3C"/>
<path d="M56.2268 10.3723C56.2268 9.23979 57.0199 8.28974 58.0795 8.04643V6.76054C58.0795 5.47968 57.0315 4.43169 55.7507 4.43169H50.8297C50.2131 4.43169 49.651 4.67495 49.2332 5.06972V11.7249H56.2268V10.3723Z" fill="#F4CD3C"/>
<path d="M56.2263 13.5522V13.1898H49.2327V13.5522V14.5971C49.2327 14.6142 49.2313 14.631 49.2302 14.6479H56.2264V13.5522H56.2263Z" fill="#F4CD3C"/>
</g>
<defs>
<clipPath id="clip0">
<rect width="25" height="25" fill="white" transform="translate(36)"/>
</clipPath>
</defs>
</svg>
