<svg width="61" height="60" viewBox="0 0 61 60" fill="none" xmlns="http://www.w3.org/2000/svg">
<g clip-path="url(#clip0)">
<path d="M46.968 26.3333H43.6889C43.496 26.3333 43.3031 26.5238 43.2067 26.7143L41.8564 35.0953C41.8564 35.2857 41.9529 35.381 42.1458 35.381H43.8818C44.0746 35.381 44.1711 35.2857 44.1711 35.0953L44.5569 32.7143C44.5569 32.5238 44.7498 32.3333 45.0391 32.3333H46.1C48.3182 32.3333 49.5719 31.2857 49.8613 29.1905C50.0542 28.3333 49.8613 27.5714 49.4755 27.0952C48.8968 26.6191 48.0288 26.3333 46.968 26.3333ZM47.3537 29.4762C47.1608 30.6191 46.2929 30.6191 45.4249 30.6191H44.8462L45.232 28.4286C45.232 28.3333 45.3284 28.2381 45.5213 28.2381H45.7142C46.2929 28.2381 46.8715 28.2381 47.1608 28.6191C47.3537 28.7143 47.3537 29 47.3537 29.4762Z" fill="#139AD6"/>
<path d="M23.3395 26.3333H20.0605C19.8676 26.3333 19.6747 26.5238 19.5782 26.7143L18.228 35.0953C18.228 35.2857 18.3245 35.381 18.5174 35.381H20.0605C20.2533 35.381 20.4462 35.1905 20.5427 35L20.9285 32.7143C20.9285 32.5238 21.1213 32.3333 21.4107 32.3333H22.4715C24.6898 32.3333 25.9435 31.2857 26.2329 29.1905C26.4257 28.3333 26.2329 27.5714 25.8471 27.0952C25.2684 26.6191 24.4969 26.3333 23.3395 26.3333ZM23.7253 29.4762C23.5324 30.6191 22.6644 30.6191 21.7964 30.6191H21.3142L21.7 28.4286C21.7 28.3333 21.7964 28.2381 21.9893 28.2381H22.1822C22.7609 28.2381 23.3395 28.2381 23.6289 28.6191C23.7253 28.7143 23.8218 29 23.7253 29.4762Z" fill="#263B80"/>
<path d="M33.2732 29.381H31.7301C31.6337 29.381 31.4408 29.4762 31.4408 29.5714L31.3443 30.0476L31.2479 29.8572C30.8621 29.381 30.187 29.1905 29.4155 29.1905C27.6795 29.1905 26.1364 30.5238 25.847 32.3334C25.6542 33.2857 25.9435 34.1429 26.4257 34.7143C26.9079 35.2857 27.583 35.4762 28.451 35.4762C29.8977 35.4762 30.6692 34.6191 30.6692 34.6191L30.5728 35.0953C30.5728 35.2857 30.6692 35.381 30.8621 35.381H32.3088C32.5016 35.381 32.6945 35.1905 32.791 35L33.659 29.6667C33.5625 29.5714 33.3696 29.381 33.2732 29.381ZM31.055 32.4286C30.8621 33.2857 30.187 33.9524 29.2226 33.9524C28.7403 33.9524 28.3546 33.7619 28.1617 33.5714C27.9688 33.2857 27.8724 32.9048 27.8724 32.4286C27.9688 31.5714 28.7403 30.9048 29.6083 30.9048C30.0906 30.9048 30.3799 31.0953 30.6692 31.2857C30.9585 31.5714 31.055 32.0476 31.055 32.4286Z" fill="#263B80"/>
<path d="M56.8054 29.381H55.2623C55.1659 29.381 54.973 29.4762 54.973 29.5714L54.8765 30.0476L54.7801 29.8572C54.3943 29.381 53.7192 29.1905 52.9477 29.1905C51.2117 29.1905 49.6686 30.5238 49.3793 32.3334C49.1864 33.2857 49.4757 34.1429 49.9579 34.7143C50.4401 35.2857 51.1153 35.4762 51.9832 35.4762C53.4299 35.4762 54.2014 34.6191 54.2014 34.6191L54.105 35.0953C54.105 35.2857 54.2014 35.381 54.3943 35.381H55.841C56.0339 35.381 56.2268 35.1905 56.3232 35L57.1912 29.6667C57.0947 29.5714 56.9983 29.381 56.8054 29.381ZM54.5872 32.4286C54.3943 33.2857 53.7192 33.9524 52.7548 33.9524C52.2726 33.9524 51.8868 33.7619 51.6939 33.5714C51.501 33.2857 51.4046 32.9048 51.4046 32.4286C51.501 31.5714 52.2726 30.9048 53.1406 30.9048C53.6228 30.9048 53.9121 31.0953 54.2014 31.2857C54.5872 31.5714 54.6837 32.0476 54.5872 32.4286Z" fill="#139AD6"/>
<path d="M41.6635 29.381H40.0239C39.831 29.381 39.7346 29.4762 39.6381 29.5714L37.5164 32.8095L36.552 29.7619C36.4555 29.5714 36.3591 29.4762 36.0697 29.4762H34.5266C34.3337 29.4762 34.2373 29.6667 34.2373 29.8571L35.9733 34.9048L34.3337 37.1905C34.2373 37.3809 34.3337 37.6667 34.5266 37.6667H36.0697C36.2626 37.6667 36.3591 37.5714 36.4555 37.4762L41.7599 29.9524C42.0492 29.6667 41.8564 29.381 41.6635 29.381Z" fill="#263B80"/>
<path d="M58.6378 26.619L57.2876 35.1905C57.2876 35.381 57.384 35.4762 57.5769 35.4762H58.9271C59.12 35.4762 59.3129 35.2857 59.4093 35.0952L60.7596 26.7143C60.7596 26.5238 60.6631 26.4286 60.4702 26.4286H58.9271C58.8307 26.3333 58.7342 26.4286 58.6378 26.619Z" fill="#139AD6"/>
<path d="M11.091 23.4762C10.4159 22.7143 9.16214 22.3333 7.42616 22.3333H2.60398C2.31465 22.3333 2.02532 22.6191 1.92887 22.9048L0 35.381C0 35.6667 0.192887 35.8571 0.385775 35.8571H3.37553L4.14708 31.1905V31.381C4.24352 31.0952 4.53285 30.8095 4.82218 30.8095H6.26884C9.0657 30.8095 11.1875 29.6667 11.8626 26.5238C11.8626 26.4286 11.8626 26.3333 11.8626 26.2381C11.7661 26.2381 11.7661 26.2381 11.8626 26.2381C11.959 25 11.7661 24.2381 11.091 23.4762Z" fill="#263B80"/>
<path d="M11.7664 26.2381C11.7664 26.3333 11.7664 26.4286 11.7664 26.5238C11.0912 29.7619 8.96949 30.8095 6.17262 30.8095H4.72597C4.43664 30.8095 4.14731 31.0952 4.05086 31.381L3.08643 37.1905C3.08643 37.381 3.18287 37.5714 3.4722 37.5714H5.97973C6.26907 37.5714 6.5584 37.381 6.5584 37.0952V37L7.04062 34.0476V33.8571C7.04062 33.5714 7.32995 33.381 7.61928 33.381H8.00505C10.4161 33.381 12.345 32.4286 12.8272 29.5714C13.0201 28.4286 12.9237 27.381 12.345 26.7143C12.2486 26.5238 12.0557 26.3333 11.7664 26.2381Z" fill="#139AD6"/>
<path d="M11.0909 25.9524C10.9945 25.9524 10.898 25.8571 10.8016 25.8571C10.7051 25.8571 10.6087 25.8571 10.5123 25.7619C10.1265 25.6667 9.7407 25.6667 9.25848 25.6667H5.49718C5.40074 25.6667 5.3043 25.6667 5.20785 25.7619C5.01497 25.8571 4.91852 26.0476 4.91852 26.2381L4.14697 31.1905V31.3809C4.24342 31.0952 4.53275 30.8095 4.82208 30.8095H6.26873C9.0656 30.8095 11.1874 29.6667 11.8625 26.5238C11.8625 26.4286 11.8625 26.3333 11.9589 26.2381C11.766 26.1428 11.6696 26.0476 11.4767 26.0476C11.1874 25.9524 11.1874 25.9524 11.0909 25.9524Z" fill="#232C65"/>
</g>
<defs>
<clipPath id="clip0">
<rect width="60.7595" height="60" fill="white"/>
</clipPath>
</defs>
</svg>
