<svg width="16" height="15" viewBox="0 0 16 15" fill="none" xmlns="http://www.w3.org/2000/svg">
<g clip-path="url(#clip0)">
<path d="M7.51241 7.80827L2.83031 3.12636C2.59265 2.88847 2.30199 2.7698 1.95834 2.7698C1.61473 2.7698 1.3242 2.88851 1.08658 3.12636L0.363933 3.84878C0.126379 4.0863 0.00756836 4.377 0.00756836 4.72051C0.00756836 5.06401 0.126379 5.35458 0.363933 5.59247L6.63562 11.8737C6.87328 12.1114 7.16391 12.2302 7.50759 12.2302C7.85126 12.2302 8.14166 12.1114 8.37941 11.8737L14.6511 5.5925C14.8888 5.35461 15.0076 5.06408 15.0076 4.72054C15.0076 4.377 14.8888 4.08633 14.6511 3.84881L13.9286 3.1264C13.6911 2.88851 13.4021 2.76983 13.0615 2.76983C12.7212 2.76983 12.4289 2.88854 12.1849 3.1264L7.51241 7.80827Z" fill="#EA4F3D"/>
</g>
<defs>
<clipPath id="clip0">
<rect width="15" height="15" fill="white" transform="translate(0.00756836 15) rotate(-90)"/>
</clipPath>
</defs>
</svg>
