<svg width="30" height="30" viewBox="0 0 30 30" fill="none" xmlns="http://www.w3.org/2000/svg">
<g clip-path="url(#clip0)">
<path d="M8.91434 7.73438H7.41656C7.09295 7.73438 6.83063 7.9967 6.83063 8.32031V13.4705C6.83063 13.7941 7.09295 14.0564 7.41656 14.0564H9.1759C10.2643 14.0564 11.1497 13.1709 11.1497 12.0826C11.1497 11.4447 10.8442 10.877 10.3717 10.5167C10.5701 10.2296 10.6867 9.88172 10.6867 9.50678C10.6867 8.52949 9.89162 7.73438 8.91434 7.73438ZM8.0025 8.90625H8.91434C9.24545 8.90625 9.51486 9.17566 9.51486 9.50678C9.51486 9.84082 9.24545 10.1125 8.91434 10.1125H8.0025V8.90625ZM9.1759 12.8845H8.0025V11.2845H9.1759C9.6181 11.2845 9.97787 11.6425 9.97787 12.0826C9.97787 12.5247 9.6181 12.8845 9.1759 12.8845Z" fill="black"/>
<path d="M20.9421 14.0625H20.9436C21.2665 14.0625 21.5287 13.8011 21.5295 13.478L21.5356 11.0173L23.0746 8.65302C23.2511 8.38185 23.1744 8.01886 22.9032 7.84232C22.632 7.66578 22.2691 7.74254 22.0925 8.01371L20.9493 9.76982L19.7937 7.99994C19.6167 7.72894 19.2536 7.65271 18.9828 7.82967C18.7118 8.00662 18.6356 8.36967 18.8125 8.6406L20.3638 11.0163L20.3577 13.4751C20.3568 13.7988 20.6185 14.0617 20.9421 14.0625Z" fill="black"/>
<path d="M12.556 8.32031V11.8684C12.556 12.6359 12.9091 13.2345 13.6353 13.6985C14.0124 13.9394 14.438 14.0619 14.9004 14.0625H14.9042C15.3029 14.0625 15.6772 13.9758 16.0166 13.805C17.0861 13.2663 17.3107 12.4525 17.3107 11.8646V8.32031C17.3107 7.9967 17.0484 7.73438 16.7247 7.73438C16.4011 7.73438 16.1388 7.9967 16.1388 8.32031V11.8646C16.1388 12.1284 16.065 12.4685 15.4895 12.7583C15.3151 12.8461 15.1182 12.8906 14.9041 12.8906C14.9034 12.8906 14.9027 12.8906 14.902 12.8906C14.6628 12.8903 14.4549 12.8315 14.2662 12.711C13.8194 12.4255 13.7278 12.1677 13.7278 11.8684V8.32031C13.7278 7.9967 13.4655 7.73438 13.1418 7.73438C12.8182 7.73438 12.556 7.9967 12.556 8.32031Z" fill="black"/>
<path d="M27.0703 2.34375H17.6367C17.3131 2.34375 17.0508 2.60607 17.0508 2.92969C17.0508 3.2533 17.3131 3.51562 17.6367 3.51562H27.0703C28.0396 3.51562 28.8281 4.30418 28.8281 5.27344V16.5234C28.8281 17.4927 28.0396 18.2812 27.0703 18.2812H24.2971L19.1895 15.3324C19.0082 15.2278 18.7849 15.2278 18.6036 15.3324C18.4223 15.4371 18.3106 15.6305 18.3106 15.8398V18.2812H2.92969C1.96043 18.2812 1.17188 17.4927 1.17188 16.5234V5.27344C1.17188 4.30418 1.96043 3.51562 2.92969 3.51562H12.3633C12.6869 3.51562 12.9492 3.2533 12.9492 2.92969C12.9492 2.60607 12.6869 2.34375 12.3633 2.34375H2.92969C1.31426 2.34375 0 3.65801 0 5.27344V16.5234C0 18.1389 1.31426 19.4531 2.92969 19.4531H18.3106V23.8821C18.3106 24.0914 18.4223 24.2848 18.6036 24.3895C18.7849 24.4941 19.0082 24.4941 19.1895 24.3895L20.1234 23.8503L22.1516 27.3633C22.2293 27.4979 22.3573 27.5961 22.5074 27.6363C22.5573 27.6496 22.6083 27.6562 22.659 27.6562C22.761 27.6562 22.8622 27.6296 22.952 27.5777L26.543 25.5045C26.8232 25.3427 26.9193 24.9844 26.7574 24.7041L24.7292 21.1911L26.1543 20.3684C26.3355 20.2637 26.4472 20.0703 26.4472 19.8609C26.4472 19.7065 26.3861 19.5609 26.2814 19.4531H27.0703C28.6857 19.4531 30 18.1389 30 16.5234V5.27344C30 3.65801 28.6857 2.34375 27.0703 2.34375ZM25.4496 24.7826L22.8735 26.2699L20.8453 22.7569C20.7676 22.6223 20.6396 22.5241 20.4895 22.4839C20.4396 22.4706 20.3886 22.464 20.3379 22.464C20.2359 22.464 20.1347 22.4906 20.0449 22.5425L19.4825 22.8672V16.8547L24.6895 19.861L23.6359 20.4693C23.5013 20.547 23.4031 20.6749 23.3629 20.825C23.3227 20.9752 23.3438 21.1351 23.4214 21.2696L25.4496 24.7826Z" fill="black"/>
<path d="M15 3.51562C15.1541 3.51562 15.3053 3.45293 15.4143 3.34395C15.5232 3.23496 15.5859 3.08379 15.5859 2.92969C15.5859 2.77559 15.5232 2.62441 15.4143 2.51543C15.3053 2.40645 15.1541 2.34375 15 2.34375C14.8459 2.34375 14.6947 2.40645 14.5857 2.51543C14.4768 2.62441 14.4141 2.77559 14.4141 2.92969C14.4141 3.08379 14.4768 3.23496 14.5857 3.34395C14.6947 3.45293 14.8459 3.51562 15 3.51562Z" fill="black"/>
</g>
<defs>
<clipPath id="clip0">
<rect width="30" height="30" fill="white"/>
</clipPath>
</defs>
</svg>
