<svg width="30" height="30" viewBox="0 0 30 30" fill="none" xmlns="http://www.w3.org/2000/svg">
<g clip-path="url(#clip0)">
<path d="M23.8579 11.8322H23.8157C23.2404 11.829 22.6844 12.0404 22.2564 12.425C21.91 11.4662 21.0295 10.777 19.9983 10.777C19.3662 10.7814 18.7625 11.0409 18.3246 11.497C17.922 10.6819 17.1142 10.1289 16.1855 10.1289H16.1406C15.6429 10.1213 15.1572 10.2832 14.7634 10.5878V4.77656C14.7634 3.37224 13.6701 2.22986 12.3402 2.22986C11.0118 2.22986 9.92409 3.3715 9.92335 4.77483L9.91226 16.3046L9.25975 15.5121C8.68758 14.7997 7.84533 14.3574 6.93409 14.2906C6.04158 14.2295 5.1636 14.54 4.50814 15.1492L3.9404 15.6196C3.75731 15.7713 3.70507 16.0301 3.81472 16.241L9.33466 26.8514C10.344 28.7904 12.2643 30.0001 14.3463 30.0001H20.567V29.9947C23.7211 29.9947 26.2784 27.2577 26.2816 23.8971C26.2828 22.3935 26.2772 21.2728 26.2782 20.3645C26.2814 17.9344 26.2789 17.0377 26.2727 14.3604C26.2695 12.9593 25.1841 11.8322 23.8579 11.8322ZM25.2614 20.3611C25.2605 21.2696 25.259 22.3947 25.2575 23.8984C25.2548 26.7033 23.1374 28.9905 20.5374 28.9905H14.3465C12.6423 28.9905 11.065 27.9889 10.2304 26.3852L4.89821 16.139L5.16138 15.9194C5.16803 15.914 5.17444 15.9076 5.18085 15.9019C5.63351 15.4759 6.24265 15.2571 6.86288 15.2977C7.4969 15.3463 8.08189 15.6563 8.47837 16.1533L10.0231 18.0329C10.1582 18.1978 10.3824 18.2596 10.583 18.1879C10.7836 18.1162 10.9176 17.926 10.9176 17.7131L10.9268 4.77533C10.9272 3.92815 11.5679 3.23893 12.3407 3.23893C13.1134 3.23893 13.7541 3.92889 13.7541 4.77656V12.5773C13.7541 12.6044 13.7529 12.6318 13.7529 12.6594C13.7529 12.6712 13.7541 12.6833 13.7541 12.6949V16.0301C13.7541 16.3088 13.9801 16.5347 14.2588 16.5347C14.5375 16.5347 14.7634 16.3088 14.7634 16.0301V12.5943C14.7634 11.777 15.3878 11.1383 16.1406 11.1383H16.1855C16.9587 11.1383 17.6021 11.8122 17.6021 12.6599V15.7117C17.6021 15.9904 17.8281 16.2164 18.1068 16.2164C18.3855 16.2164 18.6114 15.9904 18.6114 15.7117V13.3173C18.6114 12.4694 19.224 11.7797 20.0015 11.7797C20.7745 11.7797 21.3871 12.4691 21.3871 13.3173V15.5762C21.3871 15.8549 21.613 16.0808 21.8917 16.0808C22.1704 16.0808 22.3964 15.8549 22.3964 15.5762V14.353C22.3964 13.5051 23.0425 12.8415 23.8157 12.8415H23.8579C24.6291 12.8415 25.2578 13.5164 25.2597 14.3616C25.2659 17.0369 25.2647 17.9327 25.2614 20.3611Z" fill="black"/>
<path d="M8.32021 4.99434C8.59891 4.99434 8.82487 4.76838 8.82487 4.48968C8.833 2.56395 10.3965 1.00734 12.322 1.00734C14.2477 1.00734 15.811 2.56395 15.8191 4.48968C15.8191 4.76838 16.0451 4.99434 16.3238 4.99434C16.6025 4.99434 16.8284 4.76838 16.8284 4.48968C16.8191 2.0073 14.8044 0 12.322 0C9.83985 0 7.82492 2.0073 7.81555 4.48968C7.81555 4.76838 8.04151 4.99434 8.32021 4.99434Z" fill="black"/>
</g>
<defs>
<clipPath id="clip0">
<rect width="30" height="30" fill="white"/>
</clipPath>
</defs>
</svg>
