<svg width="24" height="24" viewBox="0 0 24 24" fill="currentColor" xmlns="http://www.w3.org/2000/svg">
<g id="cart-icon">
<g id="Union">
<path fill-rule="evenodd" clip-rule="evenodd" d="M22.4875 5.15407C22.6442 5.16918 22.7897 5.24047 22.8959 5.35434C22.9985 5.47199 23.0277 5.63491 22.9726 5.77983L21.7475 10.8113C21.474 11.9446 20.5033 12.7865 19.3232 12.914L8.5794 14.0154L8.37516 14.466C8.22679 14.8645 8.27379 15.3077 8.50286 15.6676C8.73436 16.0318 9.13705 16.2576 9.57466 16.2683H19.5019C19.7837 16.2683 20.0123 16.4925 20.0123 16.769C20.0123 17.0455 19.7837 17.2696 19.5019 17.2696H9.57466C8.79988 17.2468 8.08539 16.8543 7.66068 16.2183C7.23193 15.5707 7.1464 14.7604 7.43106 14.0405L7.68619 13.4647L4.44521 3.87742C4.2638 3.36285 3.77517 3.01332 3.2202 3.00127H1.51039C1.22847 3.00127 1 2.77717 1 2.50064C1 2.22414 1.22847 2 1.51039 2H3.2202C4.21264 2.01031 5.09135 2.63162 5.41489 3.55199L5.87426 4.92878L22.4875 5.15407ZM19.1956 11.9128C19.9552 11.8537 20.5866 11.3155 20.7523 10.586L21.8496 6.15537L6.20605 5.93008L8.5794 12.9891L19.1956 11.9128Z" fill="black"/>
<path fill-rule="evenodd" clip-rule="evenodd" d="M7.97059 17.684C6.75552 17.684 5.77059 18.6502 5.77059 19.842C5.77059 21.0338 6.75565 22 7.97059 22C9.18566 22 10.1706 21.0338 10.1706 19.842C10.1706 18.6502 9.18566 17.684 7.97059 17.684ZM7.97059 21.0409C7.29558 21.0409 6.7484 20.5042 6.7484 19.842C6.7484 19.1799 7.29558 18.6432 7.97059 18.6432C8.6456 18.6432 9.19278 19.1799 9.19278 19.842C9.19278 20.5042 8.6456 21.0409 7.97059 21.0409Z" fill="black"/>
<path fill-rule="evenodd" clip-rule="evenodd" d="M17.341 17.6841C16.1259 17.6841 15.141 18.6502 15.141 19.842C15.141 21.0339 16.126 22 17.341 22C18.5559 22 19.541 21.0338 19.541 19.842C19.541 18.6502 18.556 17.6841 17.341 17.6841ZM17.341 21.0409C16.666 21.0409 16.1188 20.5042 16.1188 19.8421C16.1188 19.18 16.666 18.6432 17.341 18.6432C18.016 18.6432 18.5632 19.18 18.5632 19.8421C18.5632 20.5042 18.016 21.0409 17.341 21.0409Z" fill="black"/>
</g>
</g>
</svg>
