<svg width="24" height="24" viewBox="0 0 24 24" fill="currentColor" xmlns="http://www.w3.org/2000/svg">
<g id="close-icon">
<path id="Union" d="M20.8224 4.03488C21.0592 3.79814 21.0592 3.4143 20.8224 3.17756C20.5857 2.94081 20.2019 2.94081 19.9651 3.17756L12 11.1427L4.03488 3.17756C3.79814 2.94081 3.4143 2.94081 3.17756 3.17756C2.94081 3.4143 2.94081 3.79814 3.17756 4.03488L11.1427 12L3.17756 19.9651C2.94081 20.2019 2.94081 20.5857 3.17756 20.8224C3.4143 21.0592 3.79814 21.0592 4.03488 20.8224L12 12.8573L19.9651 20.8224C20.2019 21.0592 20.5857 21.0592 20.8224 20.8224C21.0592 20.5857 21.0592 20.2019 20.8224 19.9651L12.8573 12L20.8224 4.03488Z"/>
</g>
</svg>
