<svg fill="currentColor" width="24" height="24" viewBox="0 0 24 24" xmlns="http://www.w3.org/2000/svg">
<g id="glass-icon">
<path id="Union" fill-rule="evenodd" clip-rule="evenodd" d="M15.2462 15.8817C13.8401 17.1379 11.9846 17.9016 9.95079 17.9016C5.55969 17.9016 2 14.3419 2 9.95079C2 5.55969 5.55969 2 9.95079 2C14.3419 2 17.9016 5.55969 17.9016 9.95079C17.9016 11.8469 17.2378 13.588 16.13 14.9544C16.164 14.9771 16.1962 15.0034 16.2263 15.0332L21.2642 20.0289C21.5191 20.2817 21.5209 20.6932 21.2681 20.9482C21.0153 21.2031 20.6038 21.2048 20.3489 20.952L15.3109 15.9563C15.2871 15.9327 15.2656 15.9078 15.2462 15.8817ZM16.6016 9.95079C16.6016 13.6239 13.6239 16.6016 9.95079 16.6016C6.27766 16.6016 3.3 13.6239 3.3 9.95079C3.3 6.27766 6.27766 3.3 9.95079 3.3C13.6239 3.3 16.6016 6.27766 16.6016 9.95079Z" />
</g>
</svg>
