<svg width="24" height="24" viewBox="0 0 24 24" fill="currentColor" xmlns="http://www.w3.org/2000/svg">
<g id="hamburger-icon">
<path id="Union" d="M2.7181 4.13897C2.32067 4.14183 2 4.46482 2 4.86227C2 5.26174 2.32384 5.58559 2.72332 5.58559H21.1928C21.6224 5.58559 21.9733 5.24222 21.9825 4.81271C21.9921 4.36769 21.6322 4.00265 21.1871 4.00586L2.7181 4.13897ZM2 12.0721C2 12.4701 2.32268 12.7928 2.72072 12.7928H21.2451C21.6432 12.7928 21.9659 12.4701 21.9659 12.0721C21.9659 11.674 21.6432 11.3514 21.2451 11.3514H2.72072C2.32268 11.3514 2 11.674 2 12.0721ZM2 19.2793C2 19.6773 2.32268 20 2.72072 20H21.2451C21.6432 20 21.9659 19.6773 21.9659 19.2793C21.9659 18.8812 21.6432 18.5586 21.2451 18.5586H2.72072C2.32268 18.5586 2 18.8812 2 19.2793Z" fill="#151515"/>
</g>
</svg>
