<svg width="24" height="24" viewBox="0 0 24 24" fill="currentColor" xmlns="http://www.w3.org/2000/svg">
<g id="heart-icon">
<path id="Union" d="M20.5408 4.76821C19.5543 3.62795 18.1859 3 16.6875 3C14.5802 3 13.246 4.28217 12.4979 5.3578C12.3038 5.63692 12.1386 5.91679 12 6.18015C11.8614 5.91679 11.6963 5.63692 11.5021 5.3578C10.754 4.28217 9.41984 3 7.3125 3C5.81414 3 4.44566 3.62799 3.45918 4.76825C2.51824 5.85599 2 7.31277 2 8.87023C2 10.5656 2.64973 12.1424 4.04473 13.8326C5.29148 15.3431 7.08512 16.9002 9.16211 18.7032C9.93605 19.3751 10.7364 20.0699 11.5885 20.8294L11.6141 20.8522C11.7245 20.9508 11.8623 21 12 21C12.1377 21 12.2755 20.9507 12.3859 20.8522L12.4115 20.8294C13.2636 20.0699 14.0639 19.3752 14.838 18.7032C16.9149 16.9003 18.7085 15.3432 19.9553 13.8326C21.3503 12.1424 22 10.5656 22 8.87023C22 7.31277 21.4818 5.85599 20.5408 4.76821ZM14.0779 17.7946C13.4107 18.3737 12.724 18.9698 12 19.611C11.276 18.9699 10.5893 18.3738 9.92203 17.7945C5.85723 14.2658 3.17188 11.9347 3.17188 8.87023C3.17188 7.60358 3.58613 6.42711 4.33836 5.55757C5.09922 4.67816 6.15543 4.19382 7.3125 4.19382C8.9191 4.19382 9.95766 5.20213 10.5459 6.04799C11.0736 6.80663 11.349 7.57139 11.4429 7.86495C11.5214 8.11068 11.7463 8.27698 12 8.27698C12.2537 8.27698 12.4786 8.11068 12.5571 7.86495C12.651 7.57139 12.9264 6.80663 13.4541 6.04795C14.0423 5.20213 15.0809 4.19382 16.6875 4.19382C17.8446 4.19382 18.9008 4.67816 19.6616 5.55757C20.4139 6.42711 20.8281 7.60358 20.8281 8.87023C20.8281 11.9347 18.1428 14.2658 14.0779 17.7946Z" fill="black"/>
</g>
</svg>
