<svg width="73" height="52" viewBox="0 0 73 52" fill="currentColor" xmlns="http://www.w3.org/2000/svg">
<path d="M17.29 9.54V24H14.92V14.66C14.92 14.2867 14.94 13.8833 14.98 13.45L10.61 21.66C10.4033 22.0533 10.0867 22.25 9.66 22.25H9.28C8.85333 22.25 8.53667 22.0533 8.33 21.66L3.91 13.42C3.93 13.64 3.94667 13.8567 3.96 14.07C3.97333 14.2833 3.98 14.48 3.98 14.66V24H1.61V9.54H3.64C3.76 9.54 3.86333 9.54333 3.95 9.55C4.03667 9.55667 4.11333 9.57333 4.18 9.6C4.25333 9.62667 4.31667 9.67 4.37 9.73C4.43 9.79 4.48667 9.87 4.54 9.97L8.87 18C8.98333 18.2133 9.08667 18.4333 9.18 18.66C9.28 18.8867 9.37667 19.12 9.47 19.36C9.56333 19.1133 9.66 18.8767 9.76 18.65C9.86 18.4167 9.96667 18.1933 10.08 17.98L14.35 9.97C14.4033 9.87 14.46 9.79 14.52 9.73C14.58 9.67 14.6433 9.62667 14.71 9.6C14.7833 9.57333 14.8633 9.55667 14.95 9.55C15.0367 9.54333 15.14 9.54 15.26 9.54H17.29ZM27.7263 18.4V24H25.0462V18.4L19.7762 9.54H22.1463C22.3796 9.54 22.5629 9.59667 22.6963 9.71C22.8363 9.82333 22.9529 9.96667 23.0463 10.14L25.6863 14.97C25.8396 15.2567 25.9729 15.5267 26.0863 15.78C26.2063 16.0333 26.3129 16.2867 26.4063 16.54C26.4929 16.2867 26.5929 16.0333 26.7063 15.78C26.8196 15.5267 26.9496 15.2567 27.0963 14.97L29.7263 10.14C29.7996 9.99333 29.9096 9.85667 30.0563 9.73C30.2029 9.60333 30.3896 9.54 30.6163 9.54H32.9963L27.7263 18.4ZM13.8 33.54V48H11.1V41.68H4.31V48H1.61V33.54H4.31V39.76H11.1V33.54H13.8ZM31.8102 40.77C31.8102 41.83 31.6335 42.8133 31.2802 43.72C30.9335 44.62 30.4402 45.4 29.8002 46.06C29.1602 46.72 28.3902 47.2367 27.4902 47.61C26.5902 47.9767 25.5902 48.16 24.4902 48.16C23.3968 48.16 22.4002 47.9767 21.5002 47.61C20.6002 47.2367 19.8268 46.72 19.1802 46.06C18.5402 45.4 18.0435 44.62 17.6902 43.72C17.3368 42.8133 17.1602 41.83 17.1602 40.77C17.1602 39.71 17.3368 38.73 17.6902 37.83C18.0435 36.9233 18.5402 36.14 19.1802 35.48C19.8268 34.82 20.6002 34.3067 21.5002 33.94C22.4002 33.5667 23.3968 33.38 24.4902 33.38C25.2235 33.38 25.9135 33.4667 26.5602 33.64C27.2068 33.8067 27.8002 34.0467 28.3402 34.36C28.8802 34.6667 29.3635 35.0433 29.7902 35.49C30.2235 35.93 30.5902 36.4233 30.8902 36.97C31.1902 37.5167 31.4168 38.11 31.5702 38.75C31.7302 39.39 31.8102 40.0633 31.8102 40.77ZM29.0602 40.77C29.0602 39.9767 28.9535 39.2667 28.7402 38.64C28.5268 38.0067 28.2235 37.47 27.8302 37.03C27.4368 36.59 26.9568 36.2533 26.3902 36.02C25.8302 35.7867 25.1968 35.67 24.4902 35.67C23.7835 35.67 23.1468 35.7867 22.5802 36.02C22.0202 36.2533 21.5402 36.59 21.1402 37.03C20.7468 37.47 20.4435 38.0067 20.2302 38.64C20.0168 39.2667 19.9102 39.9767 19.9102 40.77C19.9102 41.5633 20.0168 42.2767 20.2302 42.91C20.4435 43.5367 20.7468 44.07 21.1402 44.51C21.5402 44.9433 22.0202 45.2767 22.5802 45.51C23.1468 45.7433 23.7835 45.86 24.4902 45.86C25.1968 45.86 25.8302 45.7433 26.3902 45.51C26.9568 45.2767 27.4368 44.9433 27.8302 44.51C28.2235 44.07 28.5268 43.5367 28.7402 42.91C28.9535 42.2767 29.0602 41.5633 29.0602 40.77ZM40.9925 45.83C41.5125 45.83 41.9758 45.7433 42.3825 45.57C42.7958 45.3967 43.1425 45.1533 43.4225 44.84C43.7025 44.5267 43.9158 44.1467 44.0625 43.7C44.2158 43.2533 44.2925 42.7533 44.2925 42.2V33.54H46.9825V42.2C46.9825 43.06 46.8425 43.8567 46.5625 44.59C46.2892 45.3167 45.8925 45.9467 45.3725 46.48C44.8592 47.0067 44.2325 47.42 43.4925 47.72C42.7525 48.0133 41.9192 48.16 40.9925 48.16C40.0592 48.16 39.2225 48.0133 38.4825 47.72C37.7425 47.42 37.1125 47.0067 36.5925 46.48C36.0792 45.9467 35.6825 45.3167 35.4025 44.59C35.1292 43.8567 34.9925 43.06 34.9925 42.2V33.54H37.6825V42.19C37.6825 42.7433 37.7558 43.2433 37.9025 43.69C38.0558 44.1367 38.2725 44.52 38.5525 44.84C38.8392 45.1533 39.1858 45.3967 39.5925 45.57C40.0058 45.7433 40.4725 45.83 40.9925 45.83ZM58.7163 36.17C58.6363 36.31 58.5496 36.4133 58.4563 36.48C58.3696 36.54 58.2596 36.57 58.1263 36.57C57.9863 36.57 57.8329 36.52 57.6663 36.42C57.5063 36.3133 57.3129 36.1967 57.0863 36.07C56.8596 35.9433 56.5929 35.83 56.2863 35.73C55.9863 35.6233 55.6296 35.57 55.2163 35.57C54.8429 35.57 54.5163 35.6167 54.2363 35.71C53.9563 35.7967 53.7196 35.92 53.5263 36.08C53.3396 36.24 53.1996 36.4333 53.1063 36.66C53.0129 36.88 52.9663 37.1233 52.9663 37.39C52.9663 37.73 53.0596 38.0133 53.2463 38.24C53.4396 38.4667 53.6929 38.66 54.0063 38.82C54.3196 38.98 54.6763 39.1233 55.0763 39.25C55.4763 39.3767 55.8863 39.5133 56.3063 39.66C56.7263 39.8 57.1363 39.9667 57.5363 40.16C57.9363 40.3467 58.2929 40.5867 58.6063 40.88C58.9196 41.1667 59.1696 41.52 59.3563 41.94C59.5496 42.36 59.6463 42.87 59.6463 43.47C59.6463 44.1233 59.5329 44.7367 59.3063 45.31C59.0863 45.8767 58.7596 46.3733 58.3263 46.8C57.8996 47.22 57.3763 47.5533 56.7563 47.8C56.1363 48.04 55.4263 48.16 54.6263 48.16C54.1663 48.16 53.7129 48.1133 53.2663 48.02C52.8196 47.9333 52.3896 47.8067 51.9762 47.64C51.5696 47.4733 51.1863 47.2733 50.8263 47.04C50.4663 46.8067 50.1463 46.5467 49.8663 46.26L50.6562 44.97C50.7229 44.8767 50.8096 44.8 50.9163 44.74C51.0229 44.6733 51.1363 44.64 51.2563 44.64C51.4229 44.64 51.6029 44.71 51.7963 44.85C51.9896 44.9833 52.2196 45.1333 52.4863 45.3C52.7529 45.4667 53.0629 45.62 53.4163 45.76C53.7763 45.8933 54.2063 45.96 54.7063 45.96C55.4729 45.96 56.0663 45.78 56.4863 45.42C56.9063 45.0533 57.1163 44.53 57.1163 43.85C57.1163 43.47 57.0196 43.16 56.8263 42.92C56.6396 42.68 56.3896 42.48 56.0763 42.32C55.7629 42.1533 55.4063 42.0133 55.0063 41.9C54.6063 41.7867 54.1996 41.6633 53.7863 41.53C53.3729 41.3967 52.9663 41.2367 52.5663 41.05C52.1663 40.8633 51.8096 40.62 51.4963 40.32C51.1829 40.02 50.9296 39.6467 50.7363 39.2C50.5496 38.7467 50.4563 38.19 50.4563 37.53C50.4563 37.0033 50.5596 36.49 50.7663 35.99C50.9796 35.49 51.2863 35.0467 51.6863 34.66C52.0863 34.2733 52.5796 33.9633 53.1663 33.73C53.7529 33.4967 54.4263 33.38 55.1863 33.38C56.0396 33.38 56.8263 33.5133 57.5463 33.78C58.2663 34.0467 58.8796 34.42 59.3863 34.9L58.7163 36.17ZM65.6928 35.68V39.69H70.7528V41.76H65.6928V45.85H72.1128V48H62.9928V33.54H72.1128V35.68H65.6928Z" fill="#EA4F3D"/>
<path d="M43.7284 13.4467V15.0699H52.1215V7.08367C51.6202 6.61 50.9457 6.31802 50.2058 6.31802H44.3005C42.7635 6.31802 41.5059 7.57562 41.5059 9.11265V10.6558C42.7772 10.9482 43.7284 12.088 43.7284 13.4467Z" fill="#F4CD3C"/>
<path d="M52.1214 16.8277H43.7284V18.5774H52.1246L52.1239 18.5684C52.1227 18.5512 52.1214 18.534 52.1214 18.5164V16.8277Z" fill="#F4CD3C"/>
<path d="M64.4948 10.6557C63.2232 10.9477 62.2716 12.0878 62.2716 13.4467V15.0699H53.8793V7.08367C54.3805 6.60994 55.0551 6.31802 55.795 6.31802H61.7002C63.2372 6.31802 64.4948 7.57562 64.4948 9.11265V10.6557Z" fill="#F4CD3C"/>
<path d="M62.2716 16.8278H53.8793V18.5165C53.8793 18.5335 53.8781 18.5503 53.8769 18.567L53.8762 18.5774H62.2717L62.2716 16.8278Z" fill="#F4CD3C"/>
<path d="M64.0295 13.2485C64.0295 12.7469 64.436 12.3403 64.9377 12.3403H66.8937C67.5047 12.3403 68 12.8356 68 13.4466V22.8101C68 23.3117 67.5934 23.7183 67.0918 23.7183H64.1328V24.8031C64.1328 25.3017 63.7176 25.7034 63.2141 25.6812C62.7398 25.6602 62.375 25.2503 62.375 24.7755V23.7183H43.625V24.8031C43.625 25.3017 43.2098 25.7033 42.7063 25.6812C42.232 25.6602 41.8672 25.2503 41.8672 24.7755V23.7183H38.9082C38.4066 23.7183 38 23.3117 38 22.8101V13.4466C38 12.8357 38.4953 12.3404 39.1062 12.3404H41.0624C41.564 12.3404 41.9706 12.7469 41.9706 13.2486V19.4269C41.9706 19.9285 42.3772 20.3352 42.8788 20.3352H63.1213C63.6228 20.3352 64.0295 19.9285 64.0295 19.4269V13.2485Z" fill="#F4CD3C"/>
</svg>
