<svg width="24" height="24" viewBox="0 0 24 24" fill="none" xmlns="http://www.w3.org/2000/svg">
<g id="user-icon">
<path id="Union" fill-rule="evenodd" clip-rule="evenodd" d="M15.2635 10.2228C14.327 11.1594 13.181 11.6341 11.8575 11.6341C10.5342 11.6341 9.38831 11.1592 8.45157 10.2229C7.51514 9.28652 7.04028 8.14058 7.04028 6.81689C7.04028 5.49349 7.51514 4.34756 8.45157 3.41113C9.388 2.4747 10.5338 2 11.8575 2C13.1809 2 14.3268 2.4747 15.2634 3.41098C16.2 4.34771 16.6747 5.49365 16.6747 6.81689C16.6747 8.14058 16.1998 9.28636 15.2635 10.2228ZM11.8575 3.17203C10.8419 3.17203 9.99896 3.5213 9.28043 4.23983C8.56174 4.95852 8.21231 5.80157 8.21231 6.81689C8.21231 7.83251 8.56174 8.67555 9.28043 9.39409C9.99927 10.1126 10.8422 10.4621 11.8575 10.4621C12.873 10.4621 13.716 10.1128 14.4347 9.39409C15.1532 8.6754 15.5027 7.83251 15.5027 6.81689C15.5027 5.80157 15.1532 4.95852 14.4347 4.23983C13.716 3.5213 12.873 3.17203 11.8575 3.17203ZM20.1242 16.1153C20.2047 16.5642 20.2593 16.9893 20.2863 17.379C20.313 17.7598 20.3266 18.1573 20.3267 18.5603C20.3267 19.6046 19.9948 20.4501 19.3402 21.073C18.6937 21.6881 17.8386 22 16.7987 22H7.16861C6.12842 22 5.27332 21.6881 4.62695 21.073C3.9725 20.4497 3.64062 19.6045 3.64062 18.5605C3.64062 18.1589 3.65405 17.7614 3.6806 17.3794C3.70761 16.9888 3.76208 16.5636 3.84265 16.1153C3.92383 15.663 4.02835 15.2356 4.15332 14.8448C4.28271 14.4406 4.4585 14.0419 4.67563 13.6597C4.90085 13.2631 5.16574 12.9178 5.46298 12.6334C5.77411 12.3357 6.15482 12.0966 6.59457 11.9225C7.03296 11.7488 7.5188 11.6608 8.03882 11.6608C8.24298 11.6608 8.44043 11.7445 8.82144 11.9928C9.05963 12.148 9.33429 12.325 9.63779 12.5189C9.89932 12.6859 10.2544 12.8423 10.6923 12.9837C11.1203 13.1221 11.5546 13.1923 11.9831 13.1923C12.4118 13.1923 12.8461 13.1221 13.2738 12.9837C13.7122 12.8421 14.0671 12.6857 14.3291 12.5188C14.6355 12.323 14.91 12.146 15.1447 11.9929C15.526 11.7447 15.7234 11.6609 15.9276 11.6609C16.4475 11.6609 16.9335 11.7488 17.372 11.9223C17.8121 12.0967 18.1926 12.3358 18.5034 12.6332C18.8007 12.9175 19.0656 13.2629 19.291 13.6597C19.5084 14.0419 19.684 14.4408 19.8134 14.8447C19.9385 15.2354 20.0431 15.663 20.1242 16.1153ZM16.7986 20.8279C17.538 20.8279 18.105 20.6303 18.5321 20.2238C18.951 19.8253 19.1545 19.2811 19.1547 18.5605C19.1545 18.1846 19.142 17.8145 19.1172 17.4606C19.093 17.1127 19.0436 16.7297 18.9707 16.3222C18.8987 15.9207 18.8066 15.5438 18.6972 15.202C18.5926 14.875 18.4494 14.5508 18.272 14.2387C18.1028 13.9409 17.9081 13.6856 17.6932 13.4801C17.4922 13.2878 17.239 13.1302 16.9406 13.0121C16.6645 12.9028 16.3542 12.843 16.0173 12.834C15.9763 12.8558 15.9032 12.8976 15.7848 12.9747C15.5439 13.1319 15.2739 13.3058 14.9597 13.5066C14.6132 13.7276 14.1675 13.9267 13.6344 14.099C13.0901 14.2749 12.5345 14.3643 11.9832 14.3643C11.4319 14.3643 10.8765 14.2749 10.3319 14.0988C9.79922 13.9268 9.35336 13.7276 9.00729 13.5069C8.70029 13.3108 8.42258 13.1317 8.18164 12.9747C8.06323 12.8975 7.99014 12.8558 7.9491 12.834C7.61234 12.843 7.30212 12.9028 7.02609 13.0121C6.72763 13.1302 6.47433 13.2877 6.27338 13.4801C6.05853 13.6858 5.86383 13.941 5.69461 14.2386C5.5173 14.5508 5.37433 14.8749 5.2695 15.2022C5.16025 15.5435 5.06839 15.9206 4.99622 16.3223C4.92313 16.7291 4.87384 17.112 4.84973 17.4605C4.82501 17.8157 4.81265 18.1857 4.81265 18.5605C4.81265 19.281 5.0162 19.8253 5.43506 20.224C5.862 20.6303 6.42902 20.8279 7.16861 20.8279H16.7986Z" fill="black"/>
</g>
</svg>
