<svg width="30" height="30" viewBox="0 0 30 30" fill="none" xmlns="http://www.w3.org/2000/svg">
<g clip-path="url(#clip0)">
<path d="M28.982 13.858L26.9391 12.9739L25.2044 9.59823C24.7356 8.67393 23.7845 8.09792 22.7463 8.10461H19.7591V7.26069C19.7591 5.73359 18.5401 4.48779 17.013 4.48779H2.73322C1.20612 4.48779 0.000513908 5.74029 0.000513908 7.26069V20.1875C-0.0128817 21.1185 0.730576 21.882 1.66157 21.8954C1.66827 21.8954 1.67497 21.8954 1.68836 21.8954H2.04335C2.04335 21.9624 2.03665 21.9892 2.03665 22.0294C2.02995 23.945 3.57715 25.5055 5.49272 25.5122C7.4083 25.5189 8.96889 23.9717 8.97559 22.0562C8.97559 22.0428 8.97559 22.0361 8.97559 22.0227C8.97559 21.9758 8.97559 21.9557 8.96889 21.8887H20.5092C20.5092 21.9557 20.5092 21.9825 20.5092 22.0227C20.5025 23.9383 22.0497 25.4988 23.9653 25.5055C25.8809 25.5122 27.4415 23.965 27.4482 22.0495C27.4482 22.0361 27.4482 22.0294 27.4482 22.016C27.4482 21.9691 27.4482 21.949 27.4482 21.882H28.3122C29.2432 21.882 30 21.1252 30 20.1942C30 20.1875 30 20.1808 30 20.1674V15.4119C30.0134 14.7555 29.6116 14.1327 28.982 13.858ZM5.51282 24.1794C4.334 24.1794 3.38291 23.2283 3.38291 22.0495C3.38291 20.8707 4.334 19.9196 5.51282 19.9196C6.69163 19.9196 7.64272 20.8707 7.64272 22.0495C7.64272 23.2216 6.68494 24.1794 5.51282 24.1794ZM18.4195 20.5693H8.65409C8.09148 19.3436 6.85908 18.5599 5.51282 18.5666C4.15986 18.5599 2.93416 19.3369 2.37154 20.5693H1.68836C1.48073 20.5693 1.34008 20.4085 1.34008 20.2009V16.7515H18.4195V20.5693ZM18.4195 7.26739V15.4119H1.34008V7.26739C1.34008 6.48374 1.94958 5.83405 2.73322 5.83405H17.013C17.7966 5.84075 18.4262 6.48374 18.4195 7.26069V7.26739ZM19.7591 9.45088H22.7463C23.2754 9.44418 23.7711 9.73219 24.0189 10.2077L25.3585 12.7998H19.7591V9.45088ZM23.9854 24.1794C22.8066 24.1794 21.8555 23.2283 21.8555 22.0495C21.8555 20.8707 22.8066 19.9196 23.9854 19.9196C25.1642 19.9196 26.1153 20.8707 26.1153 22.0495C26.1153 23.2216 25.1642 24.1794 23.9854 24.1794ZM28.6672 20.2009C28.6672 20.4085 28.5265 20.5693 28.3189 20.5693H27.1267C26.3162 18.8345 24.2533 18.0844 22.5186 18.8948C21.7818 19.2364 21.1857 19.8325 20.8441 20.5693H19.7591V14.1393H26.3229L28.4528 15.077C28.5868 15.144 28.6739 15.2914 28.6672 15.4387V20.2009Z" fill="black"/>
</g>
<defs>
<clipPath id="clip0">
<rect width="30" height="30" fill="white"/>
</clipPath>
</defs>
</svg>
