<svg width="20" height="21" viewBox="0 0 20 21" fill="none" xmlns="http://www.w3.org/2000/svg">
<g clip-path="url(#clip0)">
<path d="M18.896 0.36499H1.10306C0.493774 0.365297 -0.000152553 0.862144 3.53445e-08 1.4748V19.3619C0.000305211 19.9744 0.494537 20.471 1.10397 20.4708H18.896C19.5056 20.471 19.9998 19.9743 20 19.3615C20 19.3613 20 19.3611 20 19.361V1.47388C19.9997 0.861377 19.5055 0.364837 18.896 0.36499Z" fill="#4267B2"/>
<path d="M13.8086 20.4707V12.6954H16.416L16.8066 9.65207H13.8086V7.71377C13.8086 6.83466 14.0514 6.23565 15.3053 6.23565H16.8945V3.52102C16.618 3.48405 15.6694 3.40137 14.5656 3.40137C12.2609 3.40137 10.6836 4.81506 10.6836 7.41235V9.65207H8.08594V12.6954H10.6836V20.4707H13.8086Z" fill="white"/>
</g>
<defs>
<clipPath id="clip0">
<rect width="20" height="20.1058" fill="white" transform="translate(0 0.36499)"/>
</clipPath>
</defs>
</svg>
