<svg width="20" height="21" viewBox="0 0 20 21" fill="none" xmlns="http://www.w3.org/2000/svg">
<g clip-path="url(#clip0)">
<path d="M20 0.36499H0V20.4708H20V0.36499Z" fill="#DC472E"/>
<path d="M11.5534 13.2354C11.5529 13.1604 11.531 13.0824 11.5033 13.0122C11.4665 12.92 11.3875 12.8741 11.2883 12.8644C11.172 12.8529 11.079 12.9001 10.9947 12.9751C10.9609 13.0047 10.9456 13.0488 10.9456 13.0488L10.9473 15.4299V15.4885C10.9473 15.4885 10.9675 15.5159 10.9706 15.5194C11.039 15.594 11.1189 15.6531 11.2212 15.6743C11.3897 15.7091 11.5086 15.6385 11.5415 15.4815C11.5499 15.4422 11.5547 15.4016 11.5547 15.3615C11.5556 14.6525 11.5569 13.944 11.5534 13.2354ZM11.5534 13.2354C11.5529 13.1604 11.531 13.0824 11.5033 13.0122C11.4665 12.92 11.3875 12.8741 11.2883 12.8644C11.172 12.8529 11.079 12.9001 10.9947 12.9751C10.9609 13.0047 10.9456 13.0488 10.9456 13.0488L10.9473 15.4299V15.4885C10.9473 15.4885 10.9675 15.5159 10.9706 15.5194C11.039 15.594 11.1189 15.6531 11.2212 15.6743C11.3897 15.7091 11.5086 15.6385 11.5415 15.4815C11.5499 15.4422 11.5547 15.4016 11.5547 15.3615C11.5556 14.6525 11.5569 13.944 11.5534 13.2354ZM14.2054 9.6447C11.4024 9.58425 8.59812 9.58425 5.79471 9.6447C4.82221 9.66543 4.04456 10.4648 4.04456 11.4429V15.8441C4.04456 16.8227 4.82221 17.6221 5.79471 17.6428C8.59812 17.7032 11.4024 17.7032 14.2054 17.6428C15.1783 17.6221 15.956 16.8227 15.956 15.8441V11.4429C15.956 10.4649 15.1783 9.66543 14.2054 9.6447ZM6.618 16.2452H5.80963V11.6512H4.97273V10.8827H7.45666V11.6495H6.618V16.2452ZM9.51094 14.3384V16.2456H8.79517V15.8097C8.76927 15.8375 8.75479 15.8525 8.74119 15.8679C8.58715 16.0426 8.41248 16.1882 8.18954 16.2654C8.08071 16.3029 7.9688 16.3157 7.85426 16.2959C7.69803 16.2699 7.59314 16.1794 7.52994 16.0365C7.47114 15.9046 7.45622 15.7634 7.45578 15.6213C7.45402 15.0963 7.4549 12.3178 7.4549 12.2909H8.16892C8.17024 12.3151 8.17287 14.3097 8.17331 15.2825C8.17331 15.3354 8.17375 15.3897 8.18428 15.4413C8.21061 15.5719 8.31023 15.6279 8.4353 15.5821C8.57925 15.5291 8.68896 15.4294 8.78112 15.3099C8.79473 15.2926 8.79473 15.2618 8.79473 15.2371V12.2865L9.51094 12.2847C9.51094 12.2847 9.51094 13.6775 9.51094 14.3384ZM12.234 15.8644C12.1384 16.1538 11.9277 16.3012 11.6249 16.2981C11.3787 16.2959 11.179 16.1975 11.0145 16.0179C10.996 15.9981 10.9451 15.9438 10.9451 15.9438V16.2447H10.228V10.8822H10.9451C10.9451 11.4531 10.9451 12.6473 10.9451 12.6473C10.9451 12.6473 10.9855 12.5662 11.0224 12.5243C11.1334 12.3994 11.2686 12.3028 11.4353 12.2604C11.7105 12.1912 12.0278 12.2768 12.1787 12.6001C12.2678 12.7912 12.2928 12.995 12.2928 13.2024C12.2942 13.9519 12.2942 14.7015 12.2933 15.451C12.2928 15.5913 12.2784 15.7299 12.234 15.8644ZM14.8825 15.7136C14.7583 16.0793 14.5016 16.2823 14.1251 16.3378C13.8916 16.3723 13.6603 16.3674 13.4413 16.2677C13.1416 16.1318 12.9718 15.8861 12.8989 15.5733C12.8651 15.4277 12.8484 15.275 12.8467 15.1255C12.841 14.5383 12.8436 13.9506 12.8449 13.3634C12.8454 13.0564 12.9182 12.7731 13.1275 12.538C13.3663 12.2693 13.6717 12.1692 14.0206 12.1917C14.1255 12.1983 14.2326 12.2155 14.3322 12.2486C14.6714 12.3606 14.8527 12.6161 14.9238 12.9549C14.951 13.0855 14.9611 13.2209 14.9633 13.3546C14.969 13.6678 14.9611 14.3583 14.9611 14.3583H13.5879V15.3478C13.5879 15.5256 13.731 15.6695 13.9078 15.6695C14.0842 15.6695 14.2273 15.5256 14.2273 15.3478V14.8392H14.965C14.965 14.8391 14.976 15.4396 14.8825 15.7136ZM14.2273 13.1892C14.2273 13.0118 14.0842 12.8675 13.9078 12.8675C13.731 12.8675 13.5879 13.0118 13.5879 13.1892V13.7446H14.2273V13.1892ZM11.5033 13.0122C11.4665 12.92 11.3875 12.8742 11.2883 12.8645C11.172 12.853 11.079 12.9002 10.9947 12.9752C10.9609 13.0047 10.9456 13.0489 10.9456 13.0489L10.9473 15.4299V15.4886C10.9473 15.4886 10.9675 15.5159 10.9706 15.5195C11.039 15.594 11.1189 15.6531 11.2212 15.6743C11.3897 15.7092 11.5086 15.6386 11.5415 15.4815C11.5499 15.4423 11.5547 15.4017 11.5547 15.3615C11.5556 14.6525 11.5569 13.944 11.5534 13.2355C11.5529 13.1604 11.531 13.0823 11.5033 13.0122Z" fill="white"/>
<path d="M13.3364 4.55566L13.3362 8.53703H12.6023L12.6032 8.10931C12.522 8.18965 12.4528 8.26469 12.3767 8.33211C12.2418 8.45158 12.089 8.54065 11.9102 8.57581C11.6358 8.62977 11.4021 8.54255 11.3146 8.25684C11.2854 8.16168 11.2678 8.0591 11.2671 7.95975V4.55566H11.9954V7.5919C11.9954 7.63213 11.9986 7.67281 12.0056 7.71225C12.0278 7.83737 12.1197 7.89627 12.2396 7.85449C12.3857 7.80366 12.4972 7.70197 12.5917 7.58215C12.6052 7.56503 12.6027 7.53309 12.6027 7.50798V4.55566H13.3364Z" fill="white"/>
<path d="M7.26651 5.24756C7.1072 4.57251 6.77345 3.14746 6.77345 3.14746H5.93835C5.93835 3.14746 6.57996 5.2866 6.86688 6.2406C6.8772 6.2751 6.88194 6.31256 6.88194 6.34869L6.88163 8.53623H7.65169L7.65138 6.34869C7.65138 6.31256 7.65612 6.2751 7.66644 6.2406C7.95336 5.2866 8.59497 3.14746 8.59497 3.14746H7.75987C7.75987 3.14746 7.42607 4.57251 7.26681 5.24756H7.26651Z" fill="white"/>
<path d="M9.6001 4.45605C9.01977 4.45605 8.54932 4.929 8.54932 5.51241V7.57972C8.54932 8.16313 9.01977 8.63608 9.6001 8.63608C10.1804 8.63608 10.6509 8.16313 10.6509 7.57972V5.51241C10.6509 4.929 10.1804 4.45605 9.6001 4.45605ZM9.90335 7.62146C9.90335 7.78955 9.76731 7.92627 9.60015 7.92627C9.43299 7.92627 9.29694 7.78955 9.29694 7.62146V5.47063C9.29694 5.30254 9.43299 5.16582 9.60015 5.16582C9.76731 5.16582 9.90335 5.30259 9.90335 5.47063V7.62146Z" fill="white"/>
</g>
<defs>
<clipPath id="clip0">
<rect width="20" height="20.1058" fill="white" transform="translate(0 0.36499)"/>
</clipPath>
</defs>
</svg>
