<svg width="20" height="20" viewBox="0 0 20 20" fill="none" xmlns="http://www.w3.org/2000/svg">
<path d="M9.58884 10.0065L15.8314 3.76365C16.1486 3.44678 16.3068 3.05922 16.3068 2.60103C16.3068 2.14289 16.1485 1.75551 15.8314 1.43868L14.8682 0.475152C14.5515 0.158414 14.1639 0 13.7059 0C13.2478 0 12.8604 0.158414 12.5432 0.475152L4.16825 8.8374C3.85133 9.15428 3.69287 9.54179 3.69287 10C3.69287 10.4583 3.85129 10.8455 4.16825 11.1625L12.5432 19.5247C12.8604 19.8416 13.2478 20 13.7058 20C14.1639 20 14.5514 19.8416 14.8681 19.5247L15.8313 18.5614C16.1485 18.2447 16.3068 17.8593 16.3068 17.4052C16.3068 16.9515 16.1485 16.5618 15.8313 16.2364L9.58884 10.0065Z" fill="#EA4F3D"/>
</svg>
